PathFileType	4	(X/Y/Z)	Walk6.trc
DataRate	CameraRate	NumFrames	NumMarkers	Units	OrigDataRate	OrigDataStartFrame	OrigNumFrames
200.000000	200.000000	4	59	mm	200.000000	342	600
Frame#	Times		LFHD		RFHD		CLAV		STRN		LASI		RASI		RACR1		RUA1		RElbow		RFA1		RWRR		RWRU		RCAR		LACR1		LUA1		LElbow		LFA1		LWRR		RTH2		RTB1		RTB2		LTH1		LTH3		LTH2		LTH4		LMFC		LTB1		LTB2		LTB4		LMT1		LLFC		LCAR		LTB3		LWRU		RTB4		RTB3		RTH3		RMFC		RMMAL		RTH4		RLFC		RMT1		RToe		RTH1		LBHD		RElbowM		RCAL		LMT5		LToe		RBack		RPSI		C7		T10		LPSI		LMMAL		LLMAL		LCAL		LElbowM		RBHD
			X1	Y1	Z1	X2	Y2	Z2	X3	Y3	Z3	X4	Y4	Z4	X5	Y5	Z5	X6	Y6	Z6	X7	Y7	Z7	X8	Y8	Z8	X9	Y9	Z9	X10	Y10	Z10	X11	Y11	Z11	X12	Y12	Z12	X13	Y13	Z13	X14	Y14	Z14	X15	Y15	Z15	X16	Y16	Z16	X17	Y17	Z17	X18	Y18	Z18	X19	Y19	Z19	X20	Y20	Z20	X21	Y21	Z21	X22	Y22	Z22	X23	Y23	Z23	X24	Y24	Z24	X25	Y25	Z25	X26	Y26	Z26	X27	Y27	Z27	X28	Y28	Z28	X29	Y29	Z29	X30	Y30	Z30	X31	Y31	Z31	X32	Y32	Z32	X33	Y33	Z33	X34	Y34	Z34	X35	Y35	Z35	X36	Y36	Z36	X37	Y37	Z37	X38	Y38	Z38	X39	Y39	Z39	X40	Y40	Z40	X41	Y41	Z41	X42	Y42	Z42	X43	Y43	Z43	X44	Y44	Z44	X45	Y45	Z45	X46	Y46	Z46	X47	Y47	Z47	X48	Y48	Z48	X49	Y49	Z49	X50	Y50	Z50	X51	Y51	Z51	X52	Y52	Z52	X53	Y53	Z53	X54	Y54	Z54	X55	Y55	Z55	X56	Y56	Z56	X57	Y57	Z57	X58	Y58	Z58	X59	Y59	Z59

342	1.71	-10.439	1664.6	-45.865	-9.8209	1672.3	53.081	0.76454	1412.7	25.055	71.682	1255.3	26.368	-66.787	992.25	-142.9	-23.51	994.67	212.88	-109.71	1501.7	194.7	-143.2	1344	322.41	-148.21	1196.8	379.06	-134.8	1043.9	402.6	-128.11	920.4	339.94	-135.46	929.61	420.93	-115.06	839.52	392.32	-121.44	1468.6	-155.02	-125.9	1291	-241.26	-92.242	1130.7	-292.85	-22.777	1009.1	-300.99	68.132	915.71	-238.6	32.37	752.28	247.87	117.88	422.7	181.39	86.47	336.74	233.66	-143.18	756.15	-151.56	-139.15	587.79	-118.76	-83.209	676.27	-123.89	-142.43	672.84	-134.82	-133.18	500.93	44.906	-110.68	373	-42.739	-165.18	289.14	-72.58	-132.46	294.77	-19.678	-131.99	37.067	15.798	-161.31	503.59	-110.13	112.79	841.43	-270.65	-163.57	215.17	1.2488	33.302	882.09	-295.17	110.47	336.57	177.12	103.91	251.17	172.25	25.98	647.14	252.38	55.384	535.98	91.843	70.745	113.85	116.8	-15.829	721.82	263.62	46.95	539.47	247.09	197.3	68.873	159.31	231.08	82.988	198.8	-60.433	796.35	269.82	-156.35	1578.9	-49.907	-213.3	1128.3	290.55	-21.879	68.174	145.85	-203.94	25.995	-57.251	-79.559	24.234	-27.498	-255.81	1378.2	148.66	-300.46	1032.7	92.357	-196.22	1488	26.362	-259.85	1173.5	47.419	-300.75	1045.7	7.2029	-254.09	89.211	96.399	-287.58	81.465	12.645	-337.39	60.437	74.711	-141.98	1057.8	-201.03	-140.87	1596.5	96.944
343	1.715	-3.9698	1663.8	-45.6	-3.3763	1671.4	53.337	7.0761	1411.8	24.933	77.837	1254.3	25.969	-61.876	991.56	-143.38	-16.87	993.43	212.55	-103.12	1500.9	194.76	-137.69	1343.5	322.45	-143.6	1196.4	379.18	-131.14	1043.3	402.69	-125.24	919.67	340.02	-132.58	928.95	421	-112.92	838.63	392.42	-115.36	1467.7	-154.93	-118.46	1290.3	-241.23	-83.542	1130.3	-292.9	-13.153	1009.3	-300.99	78.22	916.62	-238.4	38.517	751.06	247.25	127.99	423.51	180.43	99.228	336.71	232.76	-138.86	755.58	-151.65	-135.51	587.19	-118.91	-79.182	675.44	-124.15	-138.43	672.27	-134.93	-129.38	500.14	44.725	-108.16	372.05	-42.843	-163.32	288.58	-72.586	-130.5	294	-19.721	-131.85	37.052	15.777	-158.05	503.03	-110.23	123.68	842.81	-270.34	-162.27	214.66	1.3103	43.896	882.78	-295.14	123.36	337.22	176.26	119.57	251.64	171.51	32.078	645.91	251.43	61.952	534.66	90.691	90.842	113.34	116.08	-9.6366	720.59	263.1	53.882	538.21	245.98	218.68	72.169	158.47	251.98	87.13	197.99	-54.21	795.11	269.6	-149.93	1578.2	-49.777	-208.75	1128.2	290.37	-0.35173	64.918	145.1	-203.92	26.038	-57.114	-79.477	24.186	-27.619	-249.47	1377.6	148.92	-294.23	1032	93.084	-189.91	1487.2	26.522	-253.63	1172.8	48.172	-294.86	1045.1	8.1359	-253.55	89.387	96.578	-287.16	81.814	12.852	-337.07	61.012	74.97	-133.24	1056.9	-201.5	-134.48	1595.7	97.111
344	1.72	2.5098	1663	-45.312	3.0766	1670.4	53.616	13.412	1410.8	24.832	84.017	1253.2	25.584	-56.972	990.81	-143.92	-10.247	992.14	212.33	-96.514	1500.1	194.83	-132.16	1342.9	322.51	-138.97	1195.9	379.3	-127.42	1042.6	402.77	-122.3	918.93	340.09	-129.63	928.28	421.07	-110.71	837.73	392.51	-109.25	1466.8	-154.82	-111.02	1289.6	-241.19	-74.916	1129.9	-292.93	-3.6256	1009.5	-300.97	88.216	917.52	-238.18	44.561	749.66	246.63	137.9	424.3	179.46	111.81	336.72	231.83	-134.53	755.01	-151.73	-131.89	586.59	-119.07	-75.153	674.58	-124.41	-134.42	671.69	-135.04	-125.6	499.33	44.541	-105.65	371.1	-42.956	-161.48	288.02	-72.599	-128.56	293.23	-19.774	-131.72	37.041	15.753	-154.8	502.46	-110.33	134.46	844.17	-270.03	-160.99	214.15	1.3679	54.384	883.45	-295.08	136.03	337.93	175.37	135	252.26	170.73	38.004	644.49	250.51	68.327	533.16	89.533	110.7	113.13	115.3	-3.5724	719.21	262.57	60.683	536.82	244.87	239.72	75.808	157.49	272.55	91.596	197.02	-48.056	793.75	269.35	-143.49	1577.4	-49.627	-204.15	1128.1	290.2	21.034	62.002	144.33	-203.92	26.078	-56.976	-79.408	24.14	-27.734	-243.11	1376.9	149.2	-287.96	1031.2	93.83	-183.57	1486.3	26.702	-247.38	1172	48.94	-288.92	1044.4	9.0931	-253.02	89.558	96.751	-286.75	82.165	13.054	-336.75	61.591	75.218	-124.57	1056	-201.93	-128.07	1594.8	97.297
345	1.725	8.999	1662.1	-45.001	9.538	1669.4	53.919	19.773	1409.7	24.756	90.223	1252.1	25.218	-52.069	990.01	-144.5	-3.6372	990.8	212.19	-89.889	1499.3	194.93	-126.59	1342.4	322.59	-134.31	1195.3	379.44	-123.64	1041.9	402.85	-119.28	918.18	340.16	-126.6	927.6	421.13	-108.4	836.83	392.59	-103.1	1465.8	-154.69	-103.59	1288.9	-241.12	-66.371	1129.5	-292.93	5.8023	1009.7	-300.92	98.119	918.41	-237.95	50.511	748.06	246	147.6	425.07	178.47	124.21	336.78	230.88	-130.19	754.42	-151.8	-128.27	585.98	-119.23	-71.123	673.7	-124.67	-130.42	671.09	-135.14	-121.83	498.49	44.357	-103.16	370.13	-43.078	-159.67	287.46	-72.619	-126.64	292.44	-19.834	-131.61	37.034	15.724	-151.58	501.89	-110.42	145.12	845.52	-269.69	-159.72	213.65	1.4222	64.765	884.12	-294.99	148.48	338.69	174.45	150.18	253.02	169.89	43.774	642.89	249.62	74.512	531.5	88.374	130.29	113.21	114.47	2.3727	717.67	262.03	67.369	535.33	243.76	260.4	79.77	156.38	292.73	96.37	195.89	-41.967	792.26	269.09	-137.04	1576.7	-49.454	-199.48	1127.9	290.04	42.234	59.422	143.52	-203.92	26.114	-56.837	-79.354	24.098	-27.844	-236.72	1376.2	149.49	-281.63	1030.4	94.596	-177.2	1485.5	26.903	-241.08	1171.2	49.721	-282.93	1043.7	10.072	-252.5	89.726	96.918	-286.36	82.518	13.252	-336.44	62.176	75.455	-115.95	1055.1	-202.31	-121.64	1593.8	97.505
